<svg fill="none" height="24" viewBox="0 0 24 24" width="24" xmlns="http://www.w3.org/2000/svg"><path clip-rule="evenodd" d="m4 3c-.55228 0-1 .44772-1 1v16c0 .5523.44772 1 1 1h7v-5.5h-1.5c-.55228 0-1-.4477-1-1v-3.5c0-.5523.44772-1 1-1h1.5v-2c0-2.48528 2.0147-4.5 4.5-4.5h3.5c.5523 0 1 .44772 1 1v3.5c0 .55228-.4477 1-1 1h-1.5c-.2761 0-.5.22386-.5.5v.5h2c.3138 0 .6094.1473.7983.3978.189.2505.2494.5752.1632.8769l-1 3.5c-.1226.4293-.515.7253-.9615.7253h-1v5.5h3c.5523 0 1-.4477 1-1v-16c0-.55228-.4477-1-1-1zm-3 1c0-1.65685 1.34315-3 3-3h16c1.6569 0 3 1.34315 3 3v16c0 1.6569-1.3431 3-3 3h-4c-.5523 0-1-.4477-1-1v-7.5c0-.5523.4477-1 1-1h1.2457l.4286-1.5h-1.6743c-.5523 0-1-.4477-1-1v-1.5c0-1.38071 1.1193-2.5 2.5-2.5h.5v-1.5h-2.5c-1.3807 0-2.5 1.11929-2.5 2.5v3c0 .5523-.4477 1-1 1h-1.5v1.5h1.5c.5523 0 1 .4477 1 1v7.5c0 .5523-.4477 1-1 1h-8c-1.65685 0-3-1.3431-3-3z" fill="#000" fill-rule="evenodd"/></svg>